<svg xmlns="http://www.w3.org/2000/svg" width="44" height="44" viewBox="0 0 44 44" fill="none">
  <rect x="1" y="1" width="42" height="42" rx="9" fill="#3a3a3a" stroke="#3f3f46" stroke-width="1"/>
  <rect x="6.5" y="6.5" width="5" height="5" rx="1.2" fill="#f9fafb"/>
  <rect x="13" y="6.5" width="5" height="5" rx="1.2" fill="#f9fafb"/>
  <rect x="19.5" y="6.5" width="5" height="5" rx="1.2" fill="#f9fafb"/>
  <rect x="26" y="6.5" width="5" height="5" rx="1.2" fill="#f9fafb"/>
  <rect x="32.5" y="6.5" width="5" height="5" rx="1.2" fill="#f9fafb"/>
  <rect x="6.5" y="13" width="5" height="5" rx="1.2" fill="#f9fafb"/>
  <rect x="6.5" y="19.5" width="5" height="5" rx="1.2" fill="#f9fafb"/>
  <rect x="13" y="19.5" width="5" height="5" rx="1.2" fill="#8c6253"/>
  <rect x="19.5" y="19.5" width="5" height="5" rx="1.2" fill="#f9fafb"/>
  <rect x="26" y="19.5" width="5" height="5" rx="1.2" fill="#f9fafb"/>
  <rect x="32.5" y="19.5" width="5" height="5" rx="1.2" fill="#f9fafb"/>
  <rect x="32.5" y="26" width="5" height="5" rx="1.2" fill="#f9fafb"/>
  <rect x="6.5" y="32.5" width="5" height="5" rx="1.2" fill="#f9fafb"/>
  <rect x="13" y="32.5" width="5" height="5" rx="1.2" fill="#f9fafb"/>
  <rect x="19.5" y="32.5" width="5" height="5" rx="1.2" fill="#f9fafb"/>
  <rect x="26" y="32.5" width="5" height="5" rx="1.2" fill="#f9fafb"/>
  <rect x="32.5" y="32.5" width="5" height="5" rx="1.2" fill="#f9fafb"/>
</svg>
